<svg version="1.1" xmlns="http://www.w3.org/2000/svg" xmlns:xlink="http://www.w3.org/1999/xlink" width="1004" height="460"><defs/><g><g transform="translate(-110,-46) scale(1,1)"><rect fill="#C0C0C0" stroke="none" x="231" y="159" width="151" height="57" opacity="0.2"/></g><g transform="translate(-110,-46) scale(1,1)"><rect fill="#ffffff" stroke="none" x="224" y="152" width="151" height="57"/></g><g transform="translate(-110,-46) scale(1,1)"><path fill="none" stroke="#000000" d="M 224 152 L 375 152 L 375 209 L 224 209 L 224 152 Z Z" stroke-miterlimit="10"/></g><g transform="translate(-110,-46) scale(1,1)"><path fill="none" stroke="#000000" d="M 224 177 L 375 177" stroke-miterlimit="10"/></g><g transform="translate(-110,-46) scale(1,1)"><path fill="none" stroke="#000000" d="M 224 187 L 375 187" stroke-miterlimit="10"/></g><g transform="translate(-110,-46) scale(1,1)"><g><path fill="none" stroke="none"/><text fill="#000000" stroke="none" font-family="Arial" font-size="13px" font-style="normal" font-weight="bold" text-decoration="none" x="276.37548828125" y="171.5">Session</text></g></g><g transform="translate(-110,-46) scale(1,1)"><g><path fill="none" stroke="none"/><text fill="#000000" stroke="none" font-family="Arial" font-size="13px" font-style="normal" font-weight="normal" text-decoration="none" x="229" y="204.5">+partition(level)</text></g></g><g transform="translate(-110,-46) scale(1,1)"><rect fill="#C0C0C0" stroke="none" x="455" y="287" width="104" height="72" opacity="0.2"/></g><g transform="translate(-110,-46) scale(1,1)"><rect fill="#ffffff" stroke="none" x="448" y="280" width="104" height="72"/></g><g transform="translate(-110,-46) scale(1,1)"><path fill="none" stroke="#000000" d="M 448 280 L 552 280 L 552 352 L 448 352 L 448 280 Z Z" stroke-miterlimit="10"/></g><g transform="translate(-110,-46) scale(1,1)"><path fill="none" stroke="#000000" d="M 448 305 L 552 305" stroke-miterlimit="10"/></g><g transform="translate(-110,-46) scale(1,1)"><path fill="none" stroke="#000000" d="M 448 315 L 552 315" stroke-miterlimit="10"/></g><g transform="translate(-110,-46) scale(1,1)"><g><path fill="none" stroke="none"/><text fill="#000000" stroke="none" font-family="Arial" font-size="13px" font-style="normal" font-weight="bold" text-decoration="none" x="470.37548828125" y="299.5">Document</text></g></g><g transform="translate(-110,-46) scale(1,1)"><g><path fill="none" stroke="none"/><text fill="#000000" stroke="none" font-family="Arial" font-size="13px" font-style="normal" font-weight="normal" text-decoration="none" x="453" y="332.5">+save()</text></g></g><g transform="translate(-110,-46) scale(1,1)"><g><path fill="none" stroke="none"/><text fill="#000000" stroke="none" font-family="Arial" font-size="13px" font-style="normal" font-weight="normal" text-decoration="none" x="453" y="347.5">+load()</text></g></g><g transform="translate(-110,-46) scale(1,1)"><rect fill="#C0C0C0" stroke="none" x="127" y="287" width="104" height="44" opacity="0.2"/></g><g transform="translate(-110,-46) scale(1,1)"><rect fill="#ffffff" stroke="none" x="120" y="280" width="104" height="44"/></g><g transform="translate(-110,-46) scale(1,1)"><path fill="none" stroke="#000000" d="M 120 280 L 224 280 L 224 324 L 120 324 L 120 280 Z Z" stroke-miterlimit="10"/></g><g transform="translate(-110,-46) scale(1,1)"><path fill="none" stroke="#000000" d="M 120 305 L 224 305" stroke-miterlimit="10"/></g><g transform="translate(-110,-46) scale(1,1)"><path fill="none" stroke="#000000" d="M 120 315 L 224 315" stroke-miterlimit="10"/></g><g transform="translate(-110,-46) scale(1,1)"><g><path fill="none" stroke="none"/><text fill="#000000" stroke="none" font-family="Arial" font-size="13px" font-style="normal" font-weight="bold" text-decoration="none" x="139.115966796875" y="299.5">Embedding</text></g></g><g transform="translate(-110,-46) scale(1,1)"><rect fill="#C0C0C0" stroke="none" x="631" y="279" width="104" height="44" opacity="0.2"/></g><g transform="translate(-110,-46) scale(1,1)"><rect fill="#ffffff" stroke="none" x="624" y="272" width="104" height="44"/></g><g transform="translate(-110,-46) scale(1,1)"><path fill="none" stroke="#000000" d="M 624 272 L 728 272 L 728 316 L 624 316 L 624 272 Z Z" stroke-miterlimit="10"/></g><g transform="translate(-110,-46) scale(1,1)"><path fill="none" stroke="#000000" d="M 624 297 L 728 297" stroke-miterlimit="10"/></g><g transform="translate(-110,-46) scale(1,1)"><path fill="none" stroke="#000000" d="M 624 307 L 728 307" stroke-miterlimit="10"/></g><g transform="translate(-110,-46) scale(1,1)"><g><path fill="none" stroke="none"/><text fill="#000000" stroke="none" font-family="Arial" font-size="13px" font-style="normal" font-weight="bold" text-decoration="none" x="663.35546875" y="291.5">NLP</text></g></g><g transform="translate(-110,-46) scale(1,1)"><rect fill="#C0C0C0" stroke="none" x="623" y="383" width="120" height="44" opacity="0.2"/></g><g transform="translate(-110,-46) scale(1,1)"><rect fill="#ffffff" stroke="none" x="616" y="376" width="120" height="44"/></g><g transform="translate(-110,-46) scale(1,1)"><path fill="none" stroke="#000000" d="M 616 376 L 736 376 L 736 420 L 616 420 L 616 376 Z Z" stroke-miterlimit="10"/></g><g transform="translate(-110,-46) scale(1,1)"><path fill="none" stroke="#000000" d="M 616 401 L 736 401" stroke-miterlimit="10"/></g><g transform="translate(-110,-46) scale(1,1)"><path fill="none" stroke="#000000" d="M 616 411 L 736 411" stroke-miterlimit="10"/></g><g transform="translate(-110,-46) scale(1,1)"><g><path fill="none" stroke="none"/><text fill="#000000" stroke="none" font-family="Arial" font-size="13px" font-style="normal" font-weight="bold" text-decoration="none" x="651.799560546875" y="395.5">Importer</text></g></g><g transform="translate(-110,-46) scale(1,1)"><path fill="none" stroke="#000000" d="M 224 184 L 176 184 M 176 184 A 8 8 0 0 0 168 192 L 168 280" stroke-miterlimit="10"/></g><g transform="translate(-110,-46) scale(1,1)"><g><path fill="none" stroke="none"/><text fill="#000000" stroke="none" font-family="Arial" font-size="13px" font-style="normal" font-weight="normal" text-decoration="none" x="192.5" y="177.5">0..*</text></g></g><g transform="translate(-110,-46) scale(1,1)"><g><path fill="none" stroke="none"/><text fill="#000000" stroke="none" font-family="Arial" font-size="13px" font-style="normal" font-weight="normal" text-decoration="none" x="145.5" y="264.5">1..*</text></g></g><g transform="translate(-110,-46) scale(1,1)"><path fill="none" stroke="#000000" d="M 283 209 L 283 294 M 283 294 A 8 8 0 0 0 291 302 L 448 302" stroke-miterlimit="10"/></g><g transform="translate(-110,-46) scale(1,1)"><g><path fill="none" stroke="none"/><text fill="#000000" stroke="none" font-family="Arial" font-size="13px" font-style="normal" font-weight="normal" text-decoration="none" x="260.5" y="236.5">1..*</text></g></g><g transform="translate(-110,-46) scale(1,1)"><g><path fill="none" stroke="none"/><text fill="#000000" stroke="none" font-family="Arial" font-size="13px" font-style="normal" font-weight="normal" text-decoration="none" x="416.5" y="320.5">1..*</text></g></g><g transform="translate(-110,-46) scale(1,1)"><path fill="none" stroke="#000000" d="M 676 317 L 676 375" stroke-miterlimit="10"/></g><g transform="translate(-110,-46) scale(1,1)"><g><path fill="none" stroke="none"/><text fill="#000000" stroke="none" font-family="Arial" font-size="13px" font-style="normal" font-weight="normal" text-decoration="none" x="659.5" y="344.5">1</text></g></g><g transform="translate(-110,-46) scale(1,1)"><rect fill="#C0C0C0" stroke="none" x="455" y="159" width="104" height="57" opacity="0.2"/></g><g transform="translate(-110,-46) scale(1,1)"><rect fill="#ffffff" stroke="none" x="448" y="152" width="104" height="57"/></g><g transform="translate(-110,-46) scale(1,1)"><path fill="none" stroke="#000000" d="M 448 152 L 552 152 L 552 209 L 448 209 L 448 152 Z Z" stroke-miterlimit="10"/></g><g transform="translate(-110,-46) scale(1,1)"><path fill="none" stroke="#000000" d="M 448 177 L 552 177" stroke-miterlimit="10"/></g><g transform="translate(-110,-46) scale(1,1)"><path fill="none" stroke="#000000" d="M 448 187 L 552 187" stroke-miterlimit="10"/></g><g transform="translate(-110,-46) scale(1,1)"><g><path fill="none" stroke="none"/><text fill="#000000" stroke="none" font-family="Arial" font-size="13px" font-style="normal" font-weight="bold" text-decoration="none" x="476.155029296875" y="171.5">Partition</text></g></g><g transform="translate(-110,-46) scale(1,1)"><g><path fill="none" stroke="none"/><text fill="#000000" stroke="none" font-family="Arial" font-size="13px" font-style="normal" font-weight="normal" text-decoration="none" x="453" y="204.5">+index(sim)</text></g></g><g transform="translate(-110,-46) scale(1,1)"><rect fill="#C0C0C0" stroke="none" x="631" y="159" width="104" height="57" opacity="0.2"/></g><g transform="translate(-110,-46) scale(1,1)"><rect fill="#ffffff" stroke="none" x="624" y="152" width="104" height="57"/></g><g transform="translate(-110,-46) scale(1,1)"><path fill="none" stroke="#000000" d="M 624 152 L 728 152 L 728 209 L 624 209 L 624 152 Z Z" stroke-miterlimit="10"/></g><g transform="translate(-110,-46) scale(1,1)"><path fill="none" stroke="#000000" d="M 624 177 L 728 177" stroke-miterlimit="10"/></g><g transform="translate(-110,-46) scale(1,1)"><path fill="none" stroke="#000000" d="M 624 187 L 728 187" stroke-miterlimit="10"/></g><g transform="translate(-110,-46) scale(1,1)"><g><path fill="none" stroke="none"/><text fill="#000000" stroke="none" font-family="Arial" font-size="13px" font-style="normal" font-weight="bold" text-decoration="none" x="660.09912109375" y="171.5">Index</text></g></g><g transform="translate(-110,-46) scale(1,1)"><g><path fill="none" stroke="none"/><text fill="#000000" stroke="none" font-family="Arial" font-size="13px" font-style="normal" font-weight="normal" text-decoration="none" x="629" y="204.5">+find(text)</text></g></g><g transform="translate(-110,-46) scale(1,1)"><path fill="none" stroke="#000000" d="M 627 375 L 553 341" stroke-miterlimit="10" stroke-dasharray="3"/></g><g transform="translate(-110,-46) scale(1,1)"><path fill="none" stroke="#000000" d="M 563.9920617011337 341.41782718732804 L 553 341 L 560.4771129305688 349.0680098056163" stroke-miterlimit="10"/></g><g transform="translate(-110,-46) scale(1,1)"><path fill="none" stroke="#000000" d="M 376 180 L 447 180" stroke-miterlimit="10" stroke-dasharray="3"/></g><g transform="translate(-110,-46) scale(1,1)"><path fill="none" stroke="#000000" d="M 436.83732514237585 184.209517756016 L 447 180 L 436.83732514237585 175.790482243984" stroke-miterlimit="10"/></g><g transform="translate(-110,-46) scale(1,1)"><path fill="none" stroke="#000000" d="M 553 180 L 623 180" stroke-miterlimit="10" stroke-dasharray="3"/></g><g transform="translate(-110,-46) scale(1,1)"><path fill="none" stroke="#000000" d="M 612.8373251423759 184.209517756016 L 623 180 L 612.8373251423758 175.790482243984" stroke-miterlimit="10"/></g><g transform="translate(-110,-46) scale(1,1)"><rect fill="#C0C0C0" stroke="none" x="799" y="159" width="120" height="57" opacity="0.2"/></g><g transform="translate(-110,-46) scale(1,1)"><rect fill="#ffffff" stroke="none" x="792" y="152" width="120" height="57"/></g><g transform="translate(-110,-46) scale(1,1)"><path fill="none" stroke="#000000" d="M 792 152 L 912 152 L 912 209 L 792 209 L 792 152 Z Z" stroke-miterlimit="10"/></g><g transform="translate(-110,-46) scale(1,1)"><path fill="none" stroke="#000000" d="M 792 177 L 912 177" stroke-miterlimit="10"/></g><g transform="translate(-110,-46) scale(1,1)"><path fill="none" stroke="#000000" d="M 792 200 L 912 200" stroke-miterlimit="10"/></g><g transform="translate(-110,-46) scale(1,1)"><g><path fill="none" stroke="none"/><text fill="#000000" stroke="none" font-family="Arial" font-size="13px" font-style="normal" font-weight="bold" text-decoration="none" x="833.575927734375" y="171.5">Result</text></g></g><g transform="translate(-110,-46) scale(1,1)"><g><path fill="none" stroke="none"/><text fill="#000000" stroke="none" font-family="Arial" font-size="13px" font-style="normal" font-weight="normal" text-decoration="none" x="797" y="194.5">+matches</text></g></g><g transform="translate(-110,-46) scale(1,1)"><path fill="none" stroke="#000000" d="M 729 180 L 791 180" stroke-miterlimit="10" stroke-dasharray="3"/></g><g transform="translate(-110,-46) scale(1,1)"><path fill="none" stroke="#000000" d="M 780.8373251423759 184.209517756016 L 791 180 L 780.8373251423758 175.790482243984" stroke-miterlimit="10"/></g><g transform="translate(-110,-46) scale(1,1)"><rect fill="#C0C0C0" stroke="none" x="1007" y="159" width="104" height="56" opacity="0.2"/></g><g transform="translate(-110,-46) scale(1,1)"><rect fill="#ffffff" stroke="none" x="1000" y="152" width="104" height="56"/></g><g transform="translate(-110,-46) scale(1,1)"><path fill="none" stroke="#000000" d="M 1000 152 L 1104 152 L 1104 208 L 1000 208 L 1000 152 Z Z" stroke-miterlimit="10"/></g><g transform="translate(-110,-46) scale(1,1)"><path fill="none" stroke="#000000" d="M 1000 177 L 1104 177" stroke-miterlimit="10"/></g><g transform="translate(-110,-46) scale(1,1)"><path fill="none" stroke="#000000" d="M 1000 187 L 1104 187" stroke-miterlimit="10"/></g><g transform="translate(-110,-46) scale(1,1)"><g><path fill="none" stroke="none"/><text fill="#000000" stroke="none" font-family="Arial" font-size="13px" font-style="normal" font-weight="bold" text-decoration="none" x="1034.299560546875" y="171.5">Match</text></g></g><g transform="translate(-110,-46) scale(1,1)"><path fill="none" stroke="#000000" d="M 999 180 L 913 180" stroke-miterlimit="10"/></g><g transform="translate(-110,-46) scale(1,1)"><path fill="#000000" stroke="none" d="M 923.1626748576241 175.790482243984 L 913 180 L 923.1626748576241 184.209517756016 L 935 180"/></g><g transform="translate(-110,-46) scale(1,1)"><path fill="none" stroke="#000000" d="M 923.1626748576241 175.790482243984 L 913 180 L 923.1626748576241 184.209517756016 L 935 180 L 923.1626748576241 175.790482243984" stroke-miterlimit="10"/></g><g transform="translate(-110,-46) scale(1,1)"><g><path fill="none" stroke="none"/><text fill="#000000" stroke="none" font-family="Arial" font-size="13px" font-style="normal" font-weight="normal" text-decoration="none" x="967.5" y="173.5">0..*</text></g></g><g transform="translate(-110,-46) scale(1,1)"><g><path fill="none" stroke="none"/><text fill="#000000" stroke="none" font-family="Arial" font-size="13px" font-style="normal" font-weight="normal" text-decoration="none" x="930.5" y="173.5">1</text></g></g><g transform="translate(-110,-46) scale(1,1)"><path fill="none" stroke="#000000" d="M 676 210 L 676 271" stroke-miterlimit="10"/></g><g transform="translate(-110,-46) scale(1,1)"><g><path fill="none" stroke="none"/><text fill="#000000" stroke="none" font-family="Arial" font-size="13px" font-style="normal" font-weight="normal" text-decoration="none" x="652.5" y="255.5">0..1</text></g></g><g transform="translate(-110,-46) scale(1,1)"><rect fill="#C0C0C0" stroke="none" x="623" y="63" width="120" height="44" opacity="0.2"/></g><g transform="translate(-110,-46) scale(1,1)"><rect fill="#ffffff" stroke="none" x="616" y="56" width="120" height="44"/></g><g transform="translate(-110,-46) scale(1,1)"><path fill="none" stroke="#000000" d="M 616 56 L 736 56 L 736 100 L 616 100 L 616 56 Z Z" stroke-miterlimit="10"/></g><g transform="translate(-110,-46) scale(1,1)"><path fill="none" stroke="#000000" d="M 616 81 L 736 81" stroke-miterlimit="10"/></g><g transform="translate(-110,-46) scale(1,1)"><path fill="none" stroke="#000000" d="M 616 91 L 736 91" stroke-miterlimit="10"/></g><g transform="translate(-110,-46) scale(1,1)"><g><path fill="none" stroke="none"/><text fill="#000000" stroke="none" font-family="Arial" font-size="13px" font-style="normal" font-weight="bold" text-decoration="none" x="634.457763671875" y="75.5">SpanSimilarity</text></g></g><g transform="translate(-110,-46) scale(1,1)"><path fill="none" stroke="#000000" d="M 676 151 L 676 101" stroke-miterlimit="10"/></g><g transform="translate(-110,-46) scale(1,1)"><g><path fill="none" stroke="none"/><text fill="#000000" stroke="none" font-family="Arial" font-size="13px" font-style="normal" font-weight="normal" text-decoration="none" x="680.5" y="150.5">0..1</text></g></g><g transform="translate(-110,-46) scale(1,1)"><rect fill="#C0C0C0" stroke="none" x="455" y="431" width="112" height="72" opacity="0.2"/></g><g transform="translate(-110,-46) scale(1,1)"><rect fill="#ffffff" stroke="none" x="448" y="424" width="112" height="72"/></g><g transform="translate(-110,-46) scale(1,1)"><path fill="none" stroke="#000000" d="M 448 424 L 560 424 L 560 496 L 448 496 L 448 424 Z Z" stroke-miterlimit="10"/></g><g transform="translate(-110,-46) scale(1,1)"><path fill="none" stroke="#000000" d="M 448 449 L 560 449" stroke-miterlimit="10"/></g><g transform="translate(-110,-46) scale(1,1)"><path fill="none" stroke="#000000" d="M 448 459 L 560 459" stroke-miterlimit="10"/></g><g transform="translate(-110,-46) scale(1,1)"><g><path fill="none" stroke="none"/><text fill="#000000" stroke="none" font-family="Arial" font-size="13px" font-style="normal" font-weight="bold" text-decoration="none" x="483.04638671875" y="443.5">Corpus</text></g></g><g transform="translate(-110,-46) scale(1,1)"><g><path fill="none" stroke="none"/><text fill="#000000" stroke="none" font-family="Arial" font-size="13px" font-style="normal" font-weight="normal" text-decoration="none" x="453" y="476.5">+save()</text></g></g><g transform="translate(-110,-46) scale(1,1)"><g><path fill="none" stroke="none"/><text fill="#000000" stroke="none" font-family="Arial" font-size="13px" font-style="normal" font-weight="normal" text-decoration="none" x="453" y="491.5">+load()</text></g></g><g transform="translate(-110,-46) scale(1,1)"><path fill="none" stroke="#000000" d="M 501 353 L 503 423" stroke-miterlimit="10"/></g><g transform="translate(-110,-46) scale(1,1)"><path fill="#000000" stroke="none" d="M 498.5019556671291 412.96169351038094 L 503 423 L 506.9175569405878 412.7212477597107 L 502.3716849742247 401.0089740978647"/></g><g transform="translate(-110,-46) scale(1,1)"><path fill="none" stroke="#000000" d="M 498.5019556671291 412.96169351038094 L 503 423 L 506.9175569405878 412.7212477597107 L 502.3716849742247 401.0089740978647 L 498.5019556671291 412.96169351038094" stroke-miterlimit="10"/></g><g transform="translate(-110,-46) scale(1,1)"><g><path fill="none" stroke="none"/><text fill="#000000" stroke="none" font-family="Arial" font-size="13px" font-style="normal" font-weight="normal" text-decoration="none" x="479.5" y="380.5">0..*</text></g></g><g transform="translate(-110,-46) scale(1,1)"><g><path fill="none" stroke="none"/><text fill="#000000" stroke="none" font-family="Arial" font-size="13px" font-style="normal" font-weight="normal" text-decoration="none" x="479.5" y="407.5">0..*</text></g></g><g transform="translate(-110,-46) scale(1,1)"><rect fill="#C0C0C0" stroke="none" x="231" y="63" width="152" height="57" opacity="0.2"/></g><g transform="translate(-110,-46) scale(1,1)"><rect fill="#ffffff" stroke="none" x="224" y="56" width="152" height="57"/></g><g transform="translate(-110,-46) scale(1,1)"><path fill="none" stroke="#000000" d="M 224 56 L 376 56 L 376 113 L 224 113 L 224 56 Z Z" stroke-miterlimit="10"/></g><g transform="translate(-110,-46) scale(1,1)"><path fill="none" stroke="#000000" d="M 224 81 L 376 81" stroke-miterlimit="10"/></g><g transform="translate(-110,-46) scale(1,1)"><path fill="none" stroke="#000000" d="M 224 91 L 376 91" stroke-miterlimit="10"/></g><g transform="translate(-110,-46) scale(1,1)"><g><path fill="none" stroke="none"/><text fill="#000000" stroke="none" font-family="Arial" font-size="13px" font-style="normal" font-weight="bold" text-decoration="none" x="266.030517578125" y="75.5">LabSession</text></g></g><g transform="translate(-110,-46) scale(1,1)"><g><path fill="none" stroke="none"/><text fill="#000000" stroke="none" font-family="Arial" font-size="13px" font-style="normal" font-weight="normal" text-decoration="none" x="229" y="108.5">+interact(nlp)</text></g></g><g transform="translate(-110,-46) scale(1,1)"><path fill="none" stroke="#000000" d="M 300 114 L 299 151" stroke-miterlimit="10"/></g><g transform="translate(-110,-46) scale(1,1)"><path fill="#FFFFFF" stroke="none" d="M 291.1331709422811 130.45461120892014 L 299 151 L 307.9650955631382 130.90952809056495"/></g><g transform="translate(-110,-46) scale(1,1)"><path fill="none" stroke="#000000" d="M 291.1331709422811 130.45461120892014 L 299 151 L 307.9650955631382 130.90952809056495 L 291.1331709422811 130.45461120892014" stroke-miterlimit="10"/></g></g></svg>